G04 #@! TF.FileFunction,Copper,L2,Bot,Signal*
%FSLAX46Y46*%
G04 Gerber Fmt 4.6, Leading zero omitted, Abs format (unit mm)*
G04 Created by KiCad (PCBNEW 4.0.2+dfsg1-stable) date Ter 27 Nov 2018 10:20:08 -02*
%MOMM*%
G01*
G04 APERTURE LIST*
%ADD10C,0.100000*%
%ADD11O,3.000000X1.000000*%
%ADD12R,1.000000X1.000000*%
%ADD13C,1.000000*%
%ADD14C,1.524000*%
%ADD15O,2.000000X1.000000*%
%ADD16C,2.000000*%
%ADD17O,1.000000X1.000000*%
%ADD18O,1.981200X3.962400*%
%ADD19C,0.500000*%
G04 APERTURE END LIST*
D10*
D11*
X202565000Y-89535000D03*
X202565000Y-94535000D03*
D12*
X139750800Y-79400400D03*
D13*
X144750800Y-79400400D03*
D12*
X163576000Y-144272000D03*
D13*
X163576000Y-149272000D03*
X143260000Y-149510000D03*
D12*
X143260000Y-146510000D03*
D14*
X144730000Y-86810000D03*
X144730000Y-89350000D03*
D15*
X167894000Y-107569000D03*
X167894000Y-105569000D03*
X167894000Y-102569000D03*
X167894000Y-100569000D03*
X160894000Y-100569000D03*
X160894000Y-102569000D03*
X160894000Y-105569000D03*
X160894000Y-107569000D03*
D16*
X121793000Y-84375000D03*
X121793000Y-89375000D03*
X121793000Y-79375000D03*
D13*
X159766000Y-68021200D03*
X144766000Y-68021200D03*
X179070000Y-105030000D03*
X179070000Y-90030000D03*
D12*
X202565000Y-68072000D03*
D17*
X202565000Y-75072000D03*
D18*
X190601600Y-149352000D03*
X185601600Y-149352000D03*
D12*
X169926000Y-83566000D03*
D13*
X167926000Y-83566000D03*
X190569600Y-125984000D03*
D12*
X188569600Y-125984000D03*
D19*
X202565000Y-75072000D02*
X202565000Y-89535000D01*
X167894000Y-100569000D02*
X167894000Y-100584000D01*
X167894000Y-100584000D02*
X177419000Y-91059000D01*
X177419000Y-91059000D02*
X179451000Y-91059000D01*
X179451000Y-91059000D02*
X179578000Y-90932000D01*
X179578000Y-90932000D02*
X179705000Y-90932000D01*
X179705000Y-90932000D02*
X201549000Y-69088000D01*
X201549000Y-69088000D02*
X203581000Y-69088000D01*
X203581000Y-69088000D02*
X203581000Y-67056000D01*
X203581000Y-67056000D02*
X159258000Y-67056000D01*
X159258000Y-67056000D02*
X158623000Y-67691000D01*
X158623000Y-67691000D02*
X158623000Y-68072000D01*
X158623000Y-68072000D02*
X158496000Y-68199000D01*
X158496000Y-68199000D02*
X158496000Y-75692000D01*
X158496000Y-75692000D02*
X144780000Y-89408000D01*
X144780000Y-89408000D02*
X144730000Y-89350000D01*
X167894000Y-105569000D02*
X167894000Y-105537000D01*
X167894000Y-105537000D02*
X166878000Y-106553000D01*
X166878000Y-106553000D02*
X166370000Y-106553000D01*
X166370000Y-106553000D02*
X166370000Y-146431000D01*
X166370000Y-146431000D02*
X163576000Y-149225000D01*
X163576000Y-149225000D02*
X163576000Y-149272000D01*
X202565000Y-94535000D02*
X202565000Y-94488000D01*
X202565000Y-94488000D02*
X196469000Y-100584000D01*
X196469000Y-100584000D02*
X167894000Y-100584000D01*
X167894000Y-100584000D02*
X167894000Y-100569000D01*
X144730000Y-89350000D02*
X144780000Y-89408000D01*
X144780000Y-89408000D02*
X121793000Y-89408000D01*
X121793000Y-89408000D02*
X121793000Y-89375000D01*
X163576000Y-149272000D02*
X163576000Y-149225000D01*
X163576000Y-149225000D02*
X163703000Y-149352000D01*
X163703000Y-149352000D02*
X185601600Y-149352000D01*
X163576000Y-149272000D02*
X163576000Y-149225000D01*
X163576000Y-149225000D02*
X163322000Y-149479000D01*
X163322000Y-149479000D02*
X143256000Y-149479000D01*
X143256000Y-149479000D02*
X143260000Y-149510000D01*
X167894000Y-100569000D02*
X167894000Y-100584000D01*
X167894000Y-100584000D02*
X166878000Y-101600000D01*
X166878000Y-101600000D02*
X166370000Y-101600000D01*
X166370000Y-101600000D02*
X166370000Y-104013000D01*
X166370000Y-104013000D02*
X167894000Y-105537000D01*
X167894000Y-105537000D02*
X167894000Y-105569000D01*
X139750800Y-79400400D02*
X139700000Y-79375000D01*
X139700000Y-79375000D02*
X121793000Y-79375000D01*
X144750800Y-79400400D02*
X144780000Y-79375000D01*
X144780000Y-79375000D02*
X144780000Y-68072000D01*
X144780000Y-68072000D02*
X144766000Y-68021200D01*
X144730000Y-86810000D02*
X144780000Y-86868000D01*
X144780000Y-86868000D02*
X144780000Y-79375000D01*
X144780000Y-79375000D02*
X144750800Y-79400400D01*
X160894000Y-105569000D02*
X160909000Y-105537000D01*
X160909000Y-105537000D02*
X161925000Y-106553000D01*
X161925000Y-106553000D02*
X162433000Y-106553000D01*
X162433000Y-106553000D02*
X162433000Y-143129000D01*
X162433000Y-143129000D02*
X163576000Y-144272000D01*
X179070000Y-90030000D02*
X179070000Y-90043000D01*
X179070000Y-90043000D02*
X172593000Y-83566000D01*
X172593000Y-83566000D02*
X169926000Y-83566000D01*
X160894000Y-100569000D02*
X160909000Y-100584000D01*
X160909000Y-100584000D02*
X160909000Y-89027000D01*
X160909000Y-89027000D02*
X167386000Y-82550000D01*
X167386000Y-82550000D02*
X168275000Y-82550000D01*
X168275000Y-82550000D02*
X168402000Y-82677000D01*
X168402000Y-82677000D02*
X168529000Y-82677000D01*
X168529000Y-82677000D02*
X168910000Y-83058000D01*
X168910000Y-83058000D02*
X168910000Y-97028000D01*
X168910000Y-97028000D02*
X166370000Y-99568000D01*
X166370000Y-99568000D02*
X166370000Y-100076000D01*
X166370000Y-100076000D02*
X165608000Y-100838000D01*
X165608000Y-100838000D02*
X165608000Y-103632000D01*
X165608000Y-103632000D02*
X165481000Y-103759000D01*
X165481000Y-103759000D02*
X165481000Y-144399000D01*
X165481000Y-144399000D02*
X161417000Y-148463000D01*
X161417000Y-148463000D02*
X143002000Y-148463000D01*
X143002000Y-148463000D02*
X142875000Y-148590000D01*
X142875000Y-148590000D02*
X142621000Y-148590000D01*
X142621000Y-148590000D02*
X142367000Y-148844000D01*
X142367000Y-148844000D02*
X142367000Y-148971000D01*
X142367000Y-148971000D02*
X142240000Y-149098000D01*
X142240000Y-149098000D02*
X142240000Y-149987000D01*
X142240000Y-149987000D02*
X144145000Y-151892000D01*
X144145000Y-151892000D02*
X187071000Y-151892000D01*
X187071000Y-151892000D02*
X187071000Y-127508000D01*
X187071000Y-127508000D02*
X188595000Y-125984000D01*
X188595000Y-125984000D02*
X188569600Y-125984000D01*
X143260000Y-146510000D02*
X143256000Y-146558000D01*
X143256000Y-146558000D02*
X143256000Y-119126000D01*
X143256000Y-119126000D02*
X159766000Y-102616000D01*
X159766000Y-102616000D02*
X160909000Y-102616000D01*
X160909000Y-102616000D02*
X160894000Y-102569000D01*
X159766000Y-68021200D02*
X159766000Y-68072000D01*
X159766000Y-68072000D02*
X202565000Y-68072000D01*
X160894000Y-102569000D02*
X160909000Y-102616000D01*
X160909000Y-102616000D02*
X159893000Y-101600000D01*
X159893000Y-101600000D02*
X159385000Y-101600000D01*
X159385000Y-101600000D02*
X159385000Y-68453000D01*
X159385000Y-68453000D02*
X159766000Y-68072000D01*
X159766000Y-68072000D02*
X159766000Y-68021200D01*
X179070000Y-105030000D02*
X179070000Y-105029000D01*
X179070000Y-105029000D02*
X176530000Y-107569000D01*
X176530000Y-107569000D02*
X167894000Y-107569000D01*
X121793000Y-84375000D02*
X121793000Y-81661000D01*
X121793000Y-81661000D02*
X120523000Y-80391000D01*
X120523000Y-80391000D02*
X120523000Y-80264000D01*
X120523000Y-80264000D02*
X120396000Y-80137000D01*
X120396000Y-80137000D02*
X120396000Y-80010000D01*
X120396000Y-80010000D02*
X120269000Y-79883000D01*
X120269000Y-79883000D02*
X120269000Y-78613000D01*
X120269000Y-78613000D02*
X132715000Y-66167000D01*
X132715000Y-66167000D02*
X159512000Y-66167000D01*
X159512000Y-66167000D02*
X159639000Y-66294000D01*
X159639000Y-66294000D02*
X204343000Y-66294000D01*
X204343000Y-66294000D02*
X204343000Y-88265000D01*
X204343000Y-88265000D02*
X204597000Y-88519000D01*
X204597000Y-88519000D02*
X204597000Y-95504000D01*
X204597000Y-95504000D02*
X197485000Y-102616000D01*
X197485000Y-102616000D02*
X167894000Y-102616000D01*
X167894000Y-102616000D02*
X167894000Y-102569000D01*
X160894000Y-107569000D02*
X160909000Y-107569000D01*
X160909000Y-107569000D02*
X159893000Y-106553000D01*
X159893000Y-106553000D02*
X159385000Y-106553000D01*
X159385000Y-106553000D02*
X159385000Y-104521000D01*
X159385000Y-104521000D02*
X160274000Y-103632000D01*
X160274000Y-103632000D02*
X162433000Y-103632000D01*
X162433000Y-103632000D02*
X162433000Y-89027000D01*
X162433000Y-89027000D02*
X167894000Y-83566000D01*
X167894000Y-83566000D02*
X167926000Y-83566000D01*
X190569600Y-125984000D02*
X190627000Y-125984000D01*
X190627000Y-125984000D02*
X190627000Y-149352000D01*
X190627000Y-149352000D02*
X190601600Y-149352000D01*
M02*
